<?xml version="1.0" encoding="UTF-8" standalone="no"?>
<!DOCTYPE svg PUBLIC "-//W3C//DTD SVG 1.0//EN" "http://www.w3.org/TR/2001/REC-SVG-20010904/DTD/svg10.dtd">
<!-- Microsoft Visio 11.0、SVG Export v1.0 により生成 r_cmtw_periodic_output.svg ページ - 1 -->
<svg xmlns="http://www.w3.org/2000/svg" xmlns:xlink="http://www.w3.org/1999/xlink" xmlns:ev="http://www.w3.org/2001/xml-events"
		xmlns:v="http://schemas.microsoft.com/visio/2003/SVGExtensions/" width="9.08828in" height="3.52292in"
		viewBox="0 0 654.356 253.65" xml:space="preserve" color-interpolation-filters="sRGB" class="st7">
	<v:documentProperties v:langID="1033" v:metric="true" v:viewMarkup="false"/>

	<style type="text/css">
	<![CDATA[
		.st1 {fill:none;stroke:none;stroke-linecap:butt;stroke-width:0.75}
		.st2 {fill:#000000;font-family:Arial;font-size:1.75001em}
		.st3 {fill:#000000;font-family:Arial;font-size:0.75em}
		.st4 {fill:none}
		.st5 {stroke:#000000;stroke-linecap:butt;stroke-width:0.75}
		.st6 {font-size:1em}
		.st7 {fill:none;fill-rule:evenodd;font-size:12px;overflow:visible;stroke-linecap:square;stroke-miterlimit:3}
	]]>
	</style>

	<g v:mID="0" v:index="1" v:groupContext="foregroundPage">
		<title>ページ - 1</title>
		<v:pageProperties v:drawingScale="1" v:pageScale="1" v:drawingUnits="19" v:shadowOffsetX="9" v:shadowOffsetY="-9"/>
		<g id="shape20-1" v:mID="20" v:groupContext="shape" transform="translate(0.75,-227.7)">
			<title>シート.20</title>
			<desc>CMTW Periodic Output</desc>
			<v:textBlock v:margins="rect(0,0,0,0)"/>
			<v:textRect cx="326.426" cy="241.05" width="652.86" height="25.2"/>
			<rect x="0" y="228.45" width="652.853" height="25.2" class="st1"/>
			<text x="218.48" y="247.35" class="st2" v:langID="1041"><v:paragraph v:horizAlign="1"/><v:tabList/>CMTW Periodic Output</text>		</g>
		<g id="group33-4" transform="translate(0.75,-5.39989)" v:mID="33" v:groupContext="group">
			<title>シート.33</title>
			<g id="shape25-5" v:mID="25" v:groupContext="shape" transform="translate(-29.0025,20.001) rotate(-45)">
				<title>シート.25</title>
				<desc>0</desc>
				<v:textBlock v:margins="rect(0,0,0,0)"/>
				<v:textRect cx="112.525" cy="248.25" width="225.06" height="10.8"/>
				<rect x="0" y="242.85" width="225.05" height="10.8" class="st1"/>
				<text x="110.02" y="250.95" class="st3" v:langID="1041"><v:paragraph v:horizAlign="1"/><v:tabList/>0</text>			</g>
			<g id="shape29-8" v:mID="29" v:groupContext="shape" transform="translate(125.158,-54.8422) rotate(-45)">
				<title>シート.29</title>
				<desc>timer_period_t::counts / 2</desc>
				<v:textBlock v:margins="rect(0,0,0,0)"/>
				<v:textRect cx="59.2051" cy="248.25" width="118.42" height="10.8"/>
				<rect x="0" y="242.85" width="118.41" height="10.8" class="st1"/>
				<text x="8.43" y="250.95" class="st3" v:langID="1041"><v:paragraph v:horizAlign="1"/><v:tabList/>timer_period_t::counts / 2</text>			</g>
			<g id="shape2-11" v:mID="2" v:groupContext="shape" transform="translate(308.437,-92.25)">
				<title>シート.2</title>
				<path d="M0 253.65 L90 253.65 L0 253.65 Z" class="st4"/>
				<path d="M0 253.65 L90 253.65" class="st5"/>
			</g>
			<g id="shape3-14" v:mID="3" v:groupContext="shape" transform="translate(398.437,-62.25)">
				<title>シート.3</title>
				<path d="M0 223.65 L0 253.65 L0 223.65 Z" class="st4"/>
				<path d="M0 223.65 L0 253.65" class="st5"/>
			</g>
			<g id="shape4-17" v:mID="4" v:groupContext="shape" transform="translate(308.437,-62.25)">
				<title>シート.4</title>
				<path d="M0 223.65 L0 253.65 L0 223.65 Z" class="st4"/>
				<path d="M0 223.65 L0 253.65" class="st5"/>
			</g>
			<g id="shape5-20" v:mID="5" v:groupContext="shape" transform="translate(188.437,-62.25)">
				<title>シート.5</title>
				<path d="M120 253.65 L0 253.65 L120 253.65 Z" class="st4"/>
				<path d="M120 253.65 L0 253.65" class="st5"/>
			</g>
			<g id="shape6-23" v:mID="6" v:groupContext="shape" transform="translate(398.437,-62.625)">
				<title>シート.6</title>
				<path d="M0 253.65 L89.63 253.65 L0 253.65 Z" class="st4"/>
				<path d="M0 253.65 L89.63 253.65" class="st5"/>
			</g>
			<g id="shape7-26" v:mID="7" v:groupContext="shape" transform="translate(487.687,-92.625)">
				<title>シート.7</title>
				<path d="M0 253.65 L90 253.65 L0 253.65 Z" class="st4"/>
				<path d="M0 253.65 L90 253.65" class="st5"/>
			</g>
			<g id="shape8-29" v:mID="8" v:groupContext="shape" transform="translate(577.687,-62.625)">
				<title>シート.8</title>
				<path d="M0 223.65 L0 253.65 L0 223.65 Z" class="st4"/>
				<path d="M0 223.65 L0 253.65" class="st5"/>
			</g>
			<g id="shape9-32" v:mID="9" v:groupContext="shape" transform="translate(487.687,-62.625)">
				<title>シート.9</title>
				<path d="M0 223.65 L0 253.65 L0 223.65 Z" class="st4"/>
				<path d="M0 223.65 L0 253.65" class="st5"/>
			</g>
			<g id="shape10-35" v:mID="10" v:groupContext="shape" transform="translate(578.062,-62.25)">
				<title>シート.10</title>
				<path d="M0 253.27 L30.38 253.65 L0 253.27 Z" class="st4"/>
				<path d="M0 253.27 L30.38 253.65" class="st5"/>
			</g>
			<g id="shape11-38" v:mID="11" v:groupContext="shape" transform="translate(308.812,-2.25)">
				<title>シート.11</title>
				<path d="M0 253.65 L90 253.65 L0 253.65 Z" class="st4"/>
				<path d="M0 253.65 L90 253.65" class="st5"/>
			</g>
			<g id="shape12-41" v:mID="12" v:groupContext="shape" transform="translate(398.437,-1.875)">
				<title>シート.12</title>
				<path d="M0 223.65 L0 253.65 L0 223.65 Z" class="st4"/>
				<path d="M0 223.65 L0 253.65" class="st5"/>
			</g>
			<g id="shape13-44" v:mID="13" v:groupContext="shape" transform="translate(308.437,-1.875)">
				<title>シート.13</title>
				<path d="M0 223.65 L0 253.65 L0 223.65 Z" class="st4"/>
				<path d="M0 223.65 L0 253.65" class="st5"/>
			</g>
			<g id="shape14-47" v:mID="14" v:groupContext="shape" transform="translate(188.812,-32.25)">
				<title>シート.14</title>
				<path d="M120 253.65 L0 253.65 L120 253.65 Z" class="st4"/>
				<path d="M120 253.65 L0 253.65" class="st5"/>
			</g>
			<g id="shape15-50" v:mID="15" v:groupContext="shape" transform="translate(398.437,-32.25)">
				<title>シート.15</title>
				<path d="M0 253.65 L89.63 253.65 L0 253.65 Z" class="st4"/>
				<path d="M0 253.65 L89.63 253.65" class="st5"/>
			</g>
			<g id="shape16-53" v:mID="16" v:groupContext="shape" transform="translate(488.437,-2.25)">
				<title>シート.16</title>
				<path d="M0 253.65 L90 253.65 L0 253.65 Z" class="st4"/>
				<path d="M0 253.65 L90 253.65" class="st5"/>
			</g>
			<g id="shape17-56" v:mID="17" v:groupContext="shape" transform="translate(577.687,-2.25)">
				<title>シート.17</title>
				<path d="M0 223.65 L0 253.65 L0 223.65 Z" class="st4"/>
				<path d="M0 223.65 L0 253.65" class="st5"/>
			</g>
			<g id="shape18-59" v:mID="18" v:groupContext="shape" transform="translate(487.687,-2.25)">
				<title>シート.18</title>
				<path d="M0 223.65 L0 253.65 L0 223.65 Z" class="st4"/>
				<path d="M0 223.65 L0 253.65" class="st5"/>
			</g>
			<g id="shape19-62" v:mID="19" v:groupContext="shape" transform="translate(578.437,-32.25)">
				<title>シート.19</title>
				<path d="M0 253.65 L30 253.65 L0 253.65 Z" class="st4"/>
				<path d="M0 253.65 L30 253.65" class="st5"/>
			</g>
			<g id="shape21-65" v:mID="21" v:groupContext="shape" transform="translate(188.437,-120.75)">
				<title>シート.21</title>
				<path d="M0 253.65 L420 253.65 L0 253.65 Z" class="st4"/>
				<path d="M0 253.65 L420 253.65" class="st5"/>
			</g>
			<g id="shape22-68" v:mID="22" v:groupContext="shape" transform="translate(398.812,-113.25)">
				<title>シート.22</title>
				<path d="M0 253.65 L0 238.65 L0 253.65 Z" class="st4"/>
				<path d="M0 253.65 L0 238.65" class="st5"/>
			</g>
			<g id="shape23-71" v:mID="23" v:groupContext="shape" transform="translate(214.222,-53.9577) rotate(-45)">
				<title>シート.23</title>
				<desc>timer_period_t::counts</desc>
				<v:textBlock v:margins="rect(0,0,0,0)"/>
				<v:textRect cx="55.0093" cy="248.25" width="110.02" height="10.8"/>
				<rect x="0" y="242.85" width="110.019" height="10.8" class="st1"/>
				<text x="10.49" y="250.95" class="st3" v:langID="1041"><v:paragraph v:horizAlign="1"/><v:tabList/>timer_period_t::counts</text>			</g>
			<g id="shape24-74" v:mID="24" v:groupContext="shape" transform="translate(218.812,-113.25)">
				<title>シート.24</title>
				<path d="M0 253.65 L0 238.65 L0 253.65 Z" class="st4"/>
				<path d="M0 253.65 L0 238.65" class="st5"/>
			</g>
			<g id="shape26-77" v:mID="26" v:groupContext="shape" transform="translate(578.812,-114)">
				<title>シート.26</title>
				<path d="M0 253.65 L0 238.65 L0 253.65 Z" class="st4"/>
				<path d="M0 253.65 L0 238.65" class="st5"/>
			</g>
			<g id="shape27-80" v:mID="27" v:groupContext="shape" transform="translate(399.216,-57.3327) rotate(-45)">
				<title>シート.27</title>
				<desc>2 * timer_period_t::counts</desc>
				<v:textBlock v:margins="rect(0,0,0,0)"/>
				<v:textRect cx="52.526" cy="248.25" width="105.06" height="10.8"/>
				<rect x="0" y="242.85" width="105.052" height="10.8" class="st1"/>
				<text x="1.25" y="250.95" class="st3" v:langID="1041"><v:paragraph v:horizAlign="1"/><v:tabList/>2 * timer_period_t::counts</text>			</g>
			<g id="shape28-83" v:mID="28" v:groupContext="shape" transform="translate(308.812,-114)">
				<title>シート.28</title>
				<path d="M0 253.65 L0 238.65 L0 253.65 Z" class="st4"/>
				<path d="M0 253.65 L0 238.65" class="st5"/>
			</g>
			<g id="shape30-86" v:mID="30" v:groupContext="shape" transform="translate(16.8696,-119.175)">
				<title>シート.30</title>
				<desc>Time after start</desc>
				<v:textBlock v:margins="rect(0,0,0,0)"/>
				<v:textRect cx="84.3768" cy="248.25" width="168.76" height="10.8"/>
				<rect x="0" y="242.85" width="168.754" height="10.8" class="st1"/>
				<text x="54.12" y="250.95" class="st3" v:langID="1033"><v:paragraph v:horizAlign="1"/><v:tabList/>Time after start  </text>			</g>
			<g id="shape31-89" v:mID="31" v:groupContext="shape" transform="translate(0.28035,-56.25)">
				<title>シート.31</title>
				<desc>One-shot mode, cmtw_output_pin_t = CMTW_OUTPUT_PIN_START_LEVE...</desc>
				<v:textBlock v:margins="rect(0,0,0,0)"/>
				<v:textRect cx="92.5313" cy="248.25" width="185.07" height="10.8"/>
				<rect x="0" y="242.85" width="185.063" height="10.8" class="st1"/>
				<text x="17.36" y="245.55" class="st3" v:langID="1041"><v:paragraph v:horizAlign="1"/><v:tabList/>One-shot mode, cmtw_output_pin_t =<v:newlineChar/><tspan
							x="1.01" dy="1.2em" class="st6">CMTW</tspan>_OUTPUT_PIN_START_LEVEL_LOW</text>			</g>
			<g id="shape32-93" v:mID="32" v:groupContext="shape">
				<title>シート.32</title>
				<desc>One-shot mode, cmtw_output_pin_t = CMTW_OUTPUT_PIN_START_LEVE...</desc>
				<v:textBlock v:margins="rect(0,0,0,0)"/>
				<v:textRect cx="92.5308" cy="248.25" width="185.07" height="10.8"/>
				<rect x="0" y="242.85" width="185.062" height="10.8" class="st1"/>
				<text x="17.36" y="245.55" class="st3" v:langID="1041"><v:paragraph v:horizAlign="1"/><v:tabList/>One-shot mode, cmtw_output_pin_t =<v:newlineChar/><tspan
							x="0.01" dy="1.2em" class="st6">CMTW</tspan>_OUTPUT_PIN_START_LEVEL_HIGH</text>			</g>
		</g>
	</g>
</svg>
