<svg width="638" height="457" xmlns="http://www.w3.org/2000/svg" xmlns:xlink="http://www.w3.org/1999/xlink" xml:space="preserve" overflow="hidden"><defs><clipPath id="clip0"><rect x="161" y="192" width="638" height="457"/></clipPath></defs><g clip-path="url(#clip0)" transform="translate(-161 -192)"><path d="M833.957 243.617 901.79 243.617 901.79 270.363 833.957 270.363Z" stroke="#0D0D0D" stroke-width="1.77657" stroke-miterlimit="8" fill="#FFFFFF" transform="matrix(1.00058 0 0 1 -388.184 9.43257)"/><text font-family="Meiryo,Meiryo_MSFontService,sans-serif" font-weight="400" font-size="34" transform="matrix(0.387842 0 0 0.387617 462.605 270)">CPU<tspan font-size="34" x="68" y="0">0</tspan></text><path d="M711.083 319.978 1024.66 319.978 1024.66 346.723 711.083 346.723Z" stroke="#0D0D0D" stroke-width="1.77657" stroke-miterlimit="8" fill="#FFFFFF" transform="matrix(1.00058 0 0 1 -388.184 9.43257)"/><text font-family="Meiryo,Meiryo_MSFontService,sans-serif" font-weight="400" font-size="34" transform="matrix(0.387842 0 0 0.387617 362.282 346)">R<tspan font-size="34" x="23" y="0">_</tspan><tspan font-size="34" x="44" y="0">ICU</tspan>_<tspan font-size="34" x="127" y="0">INTER</tspan><tspan font-size="34" x="232" y="0">_</tspan>CPU<tspan font-size="34" x="321" y="0">_</tspan>IRQ<tspan font-size="34" x="405" y="0">_</tspan><tspan font-size="34" x="426" y="0">Open</tspan><tspan font-size="34" x="517.917" y="0">(</tspan>ch<tspan font-size="34" x="570.917" y="0">0</tspan><tspan font-size="34" x="591.917" y="0">)</tspan></text><path d="M711.083 397.113 1024.66 397.113 1024.66 423.859 711.083 423.859Z" stroke="#0D0D0D" stroke-width="1.77657" stroke-miterlimit="8" fill="#FFFFFF" transform="matrix(1.00058 0 0 1 -388.184 9.43257)"/><text font-family="Meiryo,Meiryo_MSFontService,sans-serif" font-weight="400" font-size="34" transform="matrix(0.387842 0 0 0.387617 349.615 423)">R<tspan font-size="34" x="23" y="0">_</tspan><tspan font-size="34" x="44" y="0">ICU</tspan>_<tspan font-size="34" x="127" y="0">INTER</tspan><tspan font-size="34" x="232" y="0">_</tspan><tspan font-size="34" x="253" y="0">CPU</tspan><tspan font-size="34" x="321" y="0">_</tspan>IRQ<tspan font-size="34" x="405" y="0">_</tspan><tspan font-size="34" x="426" y="0">Generate</tspan><tspan font-size="34" x="583.229" y="0">(</tspan>ch<tspan font-size="34" x="636.229" y="0">0</tspan><tspan font-size="34" x="657.229" y="0">)</tspan></text><path d="M711.083 486.653 1024.66 486.653 1024.66 513.398 711.083 513.398Z" stroke="#0D0D0D" stroke-width="1.77657" stroke-miterlimit="8" fill="#FFFFFF" transform="matrix(1.00058 0 0 1 -388.184 9.43257)"/><text font-family="Meiryo,Meiryo_MSFontService,sans-serif" font-weight="400" font-size="34" transform="matrix(0.387842 0 0 0.387617 404.72 513)">r<tspan font-size="34" x="14" y="0">_</tspan><tspan font-size="34" x="35" y="0">icu</tspan><tspan font-size="34" x="82" y="0">_</tspan><tspan font-size="34" x="103" y="0">inter</tspan>_<tspan font-size="34" x="201" y="0">cpu</tspan><tspan font-size="34" x="260" y="0">_</tspan><tspan font-size="34" x="281" y="0">irq</tspan><tspan font-size="34" x="325" y="0">_</tspan><tspan font-size="34" x="346" y="0">isr</tspan></text><path d="M711.083 564.564 1024.66 564.564 1024.66 590.922 711.083 590.922Z" stroke="#0D0D0D" stroke-width="1.77657" stroke-miterlimit="8" fill="#FFFFFF" transform="matrix(1.00058 0 0 1 -388.184 9.43257)"/><text font-family="Meiryo,Meiryo_MSFontService,sans-serif" font-weight="400" font-size="34" transform="matrix(0.387842 0 0 0.387617 425.609 590)">cpu<tspan font-size="34" x="59" y="0">_</tspan><tspan font-size="34" x="80" y="0">ic</tspan><tspan font-size="34" x="106" y="0">0</tspan><tspan font-size="34" x="127" y="0">_</tspan><tspan font-size="34" x="148" y="0">callback</tspan></text><path d="M868.319 270.169 868.319 311.081 867.428 311.081 867.428 270.169ZM873.203 309.305 867.874 319.964 862.544 309.305Z" fill="#0D0D0D" transform="matrix(1.00058 0 0 1 -388.184 9.43257)"/><path d="M868.319 346.529 868.319 388.357 867.428 388.357 867.428 346.529ZM873.203 386.579 867.874 397.237 862.544 386.579Z" fill="#0D0D0D" transform="matrix(1.00058 0 0 1 -388.184 9.43257)"/><path d="M868.319 513.204 868.319 555.486 867.428 555.486 867.428 513.204ZM873.203 553.71 867.874 564.37 862.544 553.71Z" fill="#0D0D0D" transform="matrix(1.00058 0 0 1 -388.184 9.43257)"/><text font-family="Meiryo,Meiryo_MSFontService,sans-serif" font-weight="400" font-size="34" transform="matrix(0.387842 0 0 0.387617 706.771 468)">INTCPU<tspan font-size="34" x="128" y="0">0</tspan></text><path d="M1024.66 409.792 1049.54 409.792 1049.54 501.107 1034.88 501.107 1034.88 499.332 1048.65 499.332 1047.76 500.219 1047.76 410.68 1048.65 411.567 1024.66 411.567ZM1036.66 505.549 1026 500.219 1036.66 494.89Z" transform="matrix(1.00058 0 0 1 -388.184 9.43257)"/><path d="M549.834 226.174 1185.53 226.174 1185.53 638.598 549.834 638.598Z" stroke="#FFFFFF" stroke-width="1.77657" stroke-miterlimit="8" fill="none" transform="matrix(1.00058 0 0 1 -388.184 9.43257)"/><text font-family="Arial,Arial_MSFontService,sans-serif" font-weight="400" font-size="62" transform="matrix(0.387842 0 0 0.387617 289.127 223)">Software interrupt (single core usage)</text></g></svg>